<svg xmlns="http://www.w3.org/2000/svg" version="1.1" height="144" width="424" viewBox="0 0 424 144" class="diagram" text-anchor="middle" font-family="monospace" font-size="13px" stroke-linecap="round">
<text class="ascii" display="none"><![CDATA[
______         _                    ______
| ___ \       | |                   | ___ \
| |_/ ___  ___| |_ __ _ _ __ ___ ___| |_/ _ __ ___
|  __/ _ \/ __| __/ _` | '__/ _ / __|  __| '__/ _ \
| | | (_) \__ | || (_| | | |  __\__ | |  | | | (_) |
\_|  \___/|___/\__\__, |_|  \___|___\_|  |_|  \___/
                   __/ |
                  |___/
]]></text>
<path d="M 8,24 L 8,80" fill="none" stroke="black"/>
<path d="M 24,40 L 24,56" fill="none" stroke="black"/>
<path d="M 24,72 L 24,104" fill="none" stroke="black"/>
<path d="M 40,72 L 40,80" fill="none" stroke="black"/>
<path d="M 88,88 L 88,104" fill="none" stroke="black"/>
<path d="M 120,24 L 120,80" fill="none" stroke="black"/>
<path d="M 136,24 L 136,56" fill="none" stroke="black"/>
<path d="M 136,72 L 136,80" fill="none" stroke="black"/>
<path d="M 144,72 L 144,80" fill="none" stroke="black"/>
<path d="M 152,120 L 152,136" fill="none" stroke="black"/>
<path d="M 176,72 L 176,88" fill="none" stroke="black"/>
<path d="M 192,56 L 192,112" fill="none" stroke="black"/>
<path d="M 208,72 L 208,104" fill="none" stroke="black"/>
<path d="M 224,72 L 224,80" fill="none" stroke="black"/>
<path d="M 264,88 L 264,104" fill="none" stroke="black"/>
<path d="M 296,24 L 296,80" fill="none" stroke="black"/>
<path d="M 312,40 L 312,56" fill="none" stroke="black"/>
<path d="M 312,72 L 312,104" fill="none" stroke="black"/>
<path d="M 336,56 L 336,104" fill="none" stroke="black"/>
<path d="M 352,72 L 352,104" fill="none" stroke="black"/>
<path d="M 368,72 L 368,80" fill="none" stroke="black"/>
<path d="M 52,24 L 56,32" fill="none" stroke="black"/>
<path d="M 76,56 L 92,88" fill="none" stroke="black"/>
<path d="M 116,72 L 132,104" fill="none" stroke="black"/>
<path d="M 140,72 L 156,104" fill="none" stroke="black"/>
<path d="M 260,72 L 268,88" fill="none" stroke="black"/>
<path d="M 340,24 L 344,32" fill="none" stroke="black"/>
<path d="M 404,56 L 416,80" fill="none" stroke="black"/>
<path d="M 36,56 L 44,40" fill="none" stroke="black"/>
<path d="M 40,80 L 52,56" fill="none" stroke="black"/>
<path d="M 84,72 L 92,56" fill="none" stroke="black"/>
<path d="M 116,104 L 124,88" fill="none" stroke="black"/>
<path d="M 144,80 L 156,56" fill="none" stroke="black"/>
<path d="M 172,120 L 176,112" fill="none" stroke="black"/>
<path d="M 224,80 L 236,56" fill="none" stroke="black"/>
<path d="M 260,72 L 268,56" fill="none" stroke="black"/>
<path d="M 324,56 L 332,40" fill="none" stroke="black"/>
<path d="M 368,80 L 380,56" fill="none" stroke="black"/>
<path d="M 4,24 L 52,24" fill="none" stroke="black"/>
<path d="M 292,24 L 340,24" fill="none" stroke="black"/>
<path d="M 20,40 L 44,40" fill="none" stroke="black"/>
<path d="M 308,40 L 332,40" fill="none" stroke="black"/>
<path d="M 52,56 L 76,56" fill="none" stroke="black"/>
<path d="M 92,56 L 120,56" fill="none" stroke="black"/>
<path d="M 156,56 L 172,56" fill="none" stroke="black"/>
<path d="M 208,56 L 228,56" fill="none" stroke="black"/>
<path d="M 236,56 L 260,56" fill="none" stroke="black"/>
<path d="M 268,56 L 296,56" fill="none" stroke="black"/>
<path d="M 352,56 L 372,56" fill="none" stroke="black"/>
<path d="M 380,56 L 404,56" fill="none" stroke="black"/>
<path d="M 24,72 L 44,72" fill="none" stroke="black"/>
<path d="M 100,72 L 120,72" fill="none" stroke="black"/>
<path d="M 132,72 L 148,72" fill="none" stroke="black"/>
<path d="M 208,72 L 228,72" fill="none" stroke="black"/>
<path d="M 276,72 L 296,72" fill="none" stroke="black"/>
<path d="M 312,72 L 336,72" fill="none" stroke="black"/>
<path d="M 352,72 L 372,72" fill="none" stroke="black"/>
<path d="M 88,88 L 108,88" fill="none" stroke="black"/>
<path d="M 244,88 L 264,88" fill="none" stroke="black"/>
<path d="M 264,88 L 284,88" fill="none" stroke="black"/>
<path d="M 52,104 L 76,104" fill="none" stroke="black"/>
<path d="M 88,104 L 116,104" fill="none" stroke="black"/>
<path d="M 132,104 L 156,104" fill="none" stroke="black"/>
<path d="M 156,104 L 172,104" fill="none" stroke="black"/>
<path d="M 236,104 L 264,104" fill="none" stroke="black"/>
<path d="M 264,104 L 300,104" fill="none" stroke="black"/>
<path d="M 380,104 L 404,104" fill="none" stroke="black"/>
<path d="M 152,120 L 172,120" fill="none" stroke="black"/>
<path d="M 152,136 L 180,136" fill="none" stroke="black"/>
<g class="text">
<text x="128" y="20">_</text>
<text x="32" y="52">_</text>
<text x="144" y="52">_</text>
<text x="192" y="52">_ _</text>
<text x="320" y="52">_</text>
<text x="344" y="52">_</text>
<text x="64" y="68">_</text>
<text x="172" y="68">_`</text>
<text x="208" y="68">'</text>
<text x="248" y="68">_</text>
<text x="352" y="68">'</text>
<text x="392" y="68">_</text>
<text x="64" y="84">(_)</text>
<text x="164" y="84">(_</text>
<text x="392" y="84">(_)</text>
<text x="12" y="100">\_</text>
<text x="48" y="100">\</text>
<text x="80" y="100">/</text>
<text x="176" y="100">,</text>
<text x="200" y="100">_</text>
<text x="232" y="100">\</text>
<text x="300" y="100">\_</text>
<text x="344" y="100">_</text>
<text x="376" y="100">\</text>
<text x="408" y="100">/</text>
<text x="184" y="132">/</text>
</g>
<g class="source" fill="#316192" font-size="12px">
<text x="10" y="22">_</text><text x="18" y="22">_</text><text x="26" y="22">_</text><text x="34" y="22">_</text><text x="42" y="22">_</text><text x="50" y="22">_</text><text x="130" y="22">_</text><text x="298" y="22">_</text><text x="306" y="22">_</text><text x="314" y="22">_</text><text x="322" y="22">_</text><text x="330" y="22">_</text><text x="338" y="22">_</text><text x="10" y="38">|</text><text x="26" y="38">_</text><text x="34" y="38">_</text><text x="42" y="38">_</text><text x="58" y="38">\</text><text x="122" y="38">|</text><text x="138" y="38">|</text><text x="298" y="38">|</text><text x="314" y="38">_</text><text x="322" y="38">_</text><text x="330" y="38">_</text><text x="346" y="38">\</text><text x="10" y="54">|</text><text x="26" y="54">|</text><text x="34" y="54">_</text><text x="42" y="54">/</text><text x="58" y="54">_</text><text x="66" y="54">_</text><text x="74" y="54">_</text><text x="98" y="54">_</text><text x="106" y="54">_</text><text x="114" y="54">_</text><text x="122" y="54">|</text><text x="138" y="54">|</text><text x="146" y="54">_</text><text x="162" y="54">_</text><text x="170" y="54">_</text><text x="186" y="54">_</text><text x="202" y="54">_</text><text x="218" y="54">_</text><text x="226" y="54">_</text><text x="242" y="54">_</text><text x="250" y="54">_</text><text x="258" y="54">_</text><text x="274" y="54">_</text><text x="282" y="54">_</text><text x="290" y="54">_</text><text x="298" y="54">|</text><text x="314" y="54">|</text><text x="322" y="54">_</text><text x="330" y="54">/</text><text x="346" y="54">_</text><text x="362" y="54">_</text><text x="370" y="54">_</text><text x="386" y="54">_</text><text x="394" y="54">_</text><text x="402" y="54">_</text><text x="10" y="70">|</text><text x="34" y="70">_</text><text x="42" y="70">_</text><text x="50" y="70">/</text><text x="66" y="70">_</text><text x="82" y="70">\</text><text x="90" y="70">/</text><text x="106" y="70">_</text><text x="114" y="70">_</text><text x="122" y="70">|</text><text x="138" y="70">_</text><text x="146" y="70">_</text><text x="154" y="70">/</text><text x="170" y="70">_</text><text x="178" y="70">`</text><text x="194" y="70">|</text><text x="210" y="70">'</text><text x="218" y="70">_</text><text x="226" y="70">_</text><text x="234" y="70">/</text><text x="250" y="70">_</text><text x="266" y="70">/</text><text x="282" y="70">_</text><text x="290" y="70">_</text><text x="298" y="70">|</text><text x="322" y="70">_</text><text x="330" y="70">_</text><text x="338" y="70">|</text><text x="354" y="70">'</text><text x="362" y="70">_</text><text x="370" y="70">_</text><text x="378" y="70">/</text><text x="394" y="70">_</text><text x="410" y="70">\</text><text x="10" y="86">|</text><text x="26" y="86">|</text><text x="42" y="86">|</text><text x="58" y="86">(</text><text x="66" y="86">_</text><text x="74" y="86">)</text><text x="90" y="86">\</text><text x="98" y="86">_</text><text x="106" y="86">_</text><text x="122" y="86">|</text><text x="138" y="86">|</text><text x="146" y="86">|</text><text x="162" y="86">(</text><text x="170" y="86">_</text><text x="178" y="86">|</text><text x="194" y="86">|</text><text x="210" y="86">|</text><text x="226" y="86">|</text><text x="250" y="86">_</text><text x="258" y="86">_</text><text x="266" y="86">\</text><text x="274" y="86">_</text><text x="282" y="86">_</text><text x="298" y="86">|</text><text x="314" y="86">|</text><text x="338" y="86">|</text><text x="354" y="86">|</text><text x="370" y="86">|</text><text x="386" y="86">(</text><text x="394" y="86">_</text><text x="402" y="86">)</text><text x="418" y="86">|</text><text x="10" y="102">\</text><text x="18" y="102">_</text><text x="26" y="102">|</text><text x="50" y="102">\</text><text x="58" y="102">_</text><text x="66" y="102">_</text><text x="74" y="102">_</text><text x="82" y="102">/</text><text x="90" y="102">|</text><text x="98" y="102">_</text><text x="106" y="102">_</text><text x="114" y="102">_</text><text x="122" y="102">/</text><text x="130" y="102">\</text><text x="138" y="102">_</text><text x="146" y="102">_</text><text x="154" y="102">\</text><text x="162" y="102">_</text><text x="170" y="102">_</text><text x="178" y="102">,</text><text x="194" y="102">|</text><text x="202" y="102">_</text><text x="210" y="102">|</text><text x="234" y="102">\</text><text x="242" y="102">_</text><text x="250" y="102">_</text><text x="258" y="102">_</text><text x="266" y="102">|</text><text x="274" y="102">_</text><text x="282" y="102">_</text><text x="290" y="102">_</text><text x="298" y="102">\</text><text x="306" y="102">_</text><text x="314" y="102">|</text><text x="338" y="102">|</text><text x="346" y="102">_</text><text x="354" y="102">|</text><text x="378" y="102">\</text><text x="386" y="102">_</text><text x="394" y="102">_</text><text x="402" y="102">_</text><text x="410" y="102">/</text><text x="162" y="118">_</text><text x="170" y="118">_</text><text x="178" y="118">/</text><text x="194" y="118">|</text><text x="154" y="134">|</text><text x="162" y="134">_</text><text x="170" y="134">_</text><text x="178" y="134">_</text><text x="186" y="134">/</text></g></svg>
